# xmcd
#
# Track frame offsets:
#	150
#	10282
#	21054
#	35184
#	47044
#	57173
#	69890
#	81917
#	93226
#	103668
#	116217
#	127764
#	141663
#	154988
#	165113
#	176402
#	189624
#	199106
#	209973
#	221280
#	233172
#	247176
#	261036
#	271805
#	283489
#	295139
#	309621
#	322925
#	334487
#	345647
#
# Disc length: 4758 seconds
#
# Revision: 0
# Processed by: cddbd v1.5.2PL0 Copyright (c) Steve Scherf et al.
# Submitted via: dBpowerAMP V4.0
#
DISCID=cb12941e
DTITLE=Lefty Frizzell - Look What Thoughts Will Do 
DYEAR=1997
DGENRE=Country
TTITLE0=01.(Honey, Baby, Hurry) Bring Your Sweet Self Back To Me 
TTITLE1=02.All Of Me Loves All Of You 
TTITLE2=03.Always Late (With Your Kisses)
TTITLE3=04.Cigarettes And Coffee Blues 
TTITLE4=05.Don't Let Her See Me Cry 
TTITLE5=06.Don't Think It Ain't Been Fun, Dear (Cuz It Ain't)
TTITLE6=07.Forbidden Lovers 
TTITLE7=08.Forever (And Always) 
TTITLE8=09.Give Me More, More, More (Of Your Kisses) 
TTITLE9=10.I Love You A Thousand Ways 
TTITLE10=11.I Love You Mostly 
TTITLE11=12.I Want To Be With You Always 
TTITLE12=13.If You've Got The Money I've Got The Time 
TTITLE13=14.I'll Try 
TTITLE14=15.I'm An Old, Old Man (Tryin' To Live While I Can) 
TTITLE15=16.It Gets Late So Early 
TTITLE16=17.Just Can't Live That Fast (Any More) 
TTITLE17=18.Lost Love Blues 
TTITLE18=19.Look What Thoughts Will Do 
TTITLE19=20.My Rouigh And Rowdy Ways 
TTITLE20=21.Run 'Em Off 
TTITLE21=22.Saginaw Michigan 
TTITLE22=23.She's Gone, Gone, Gone 
TTITLE23=24.Shine, Shave, Shower (It's Saturday) 
TTITLE24=25.Sick, Sober And Sorry 
TTITLE25=26.The Long Black Veil 
TTITLE26=27.Travelin' Blues 
TTITLE27=28.Treat Her Right 
TTITLE28=29.You Want Everything But Me 
TTITLE29=30.You're Humbuggin' Me 
EXTD=
EXTT0=
EXTT1=
EXTT2=
EXTT3=
EXTT4=
EXTT5=
EXTT6=
EXTT7=
EXTT8=
EXTT9=
EXTT10=
EXTT11=
EXTT12=
EXTT13=
EXTT14=
EXTT15=
EXTT16=
EXTT17=
EXTT18=
EXTT19=
EXTT20=
EXTT21=
EXTT22=
EXTT23=
EXTT24=
EXTT25=
EXTT26=
EXTT27=
EXTT28=
EXTT29=
PLAYORDER=
